<?xml version="1.0" standalone="no"?>
<!DOCTYPE svg PUBLIC "-//W3C//DTD SVG 20010904//EN"
 "http://www.w3.org/TR/2001/REC-SVG-20010904/DTD/svg10.dtd">
<svg version="1.0" xmlns="http://www.w3.org/2000/svg"
 width="1080.000000pt" height="1080.000000pt" viewBox="0 0 1080.000000 1080.000000"
 preserveAspectRatio="xMidYMid meet">
<metadata>
Created by potrace 1.16, written by Peter Selinger 2001-2019
</metadata>
<g transform="translate(0.000000,1080.000000) scale(0.100000,-0.100000)"
fill="#000000" stroke="none">
<path d="M5470 7711 l0 -331 75 0 74 0 3 93 3 92 67 3 66 3 67 -96 66 -95 75
0 c49 0 74 4 74 11 0 7 -27 50 -61 97 -33 47 -63 90 -65 97 -3 7 10 22 29 33
20 11 48 42 64 69 23 40 28 59 28 113 -1 104 -43 168 -140 212 -45 20 -69 23
-237 26 l-188 4 0 -331z m360 184 c37 -19 50 -43 50 -95 0 -86 -37 -110 -170
-110 l-90 0 0 110 0 110 90 0 c62 0 100 -5 120 -15z"/>
<path d="M6160 7702 c-40 -169 -75 -312 -77 -318 -4 -11 436 -124 482 -124 11
0 40 -12 64 -25 l44 -25 34 27 c19 16 46 37 60 48 l24 20 135 -69 134 -69 -6
-76 -6 -76 65 -35 c36 -19 68 -32 70 -30 3 3 12 129 21 280 9 151 19 309 22
351 l6 75 -60 32 c-33 18 -65 32 -71 32 -6 0 -121 -88 -256 -195 -135 -107
-247 -195 -250 -195 -3 0 -4 9 -2 21 2 19 -12 24 -163 61 -91 22 -167 42 -169
44 -5 5 19 118 28 133 5 8 43 3 137 -19 71 -17 136 -33 145 -36 12 -3 18 8 27
47 7 28 12 54 12 58 0 4 -66 23 -146 42 l-145 34 5 29 c13 63 27 106 35 106 5
0 75 -16 155 -35 81 -19 152 -35 160 -35 14 0 41 100 29 111 -5 3 -107 30
-228 58 -121 29 -225 54 -231 56 -7 2 -39 -114 -84 -303z m925 -251 c-4 -54
-10 -112 -13 -129 l-7 -30 -88 47 -88 48 96 82 c53 44 99 81 102 81 3 0 2 -44
-2 -99z"/>
<path d="M4765 7721 c-35 -20 -85 -76 -85 -94 -1 -7 -8 0 -16 16 -8 15 -16 27
-18 27 -15 0 -121 -51 -119 -57 4 -19 177 -439 184 -447 4 -5 36 3 72 18 l63
27 -53 132 c-29 73 -53 140 -53 150 0 39 32 85 74 108 l43 22 -22 56 c-13 30
-27 57 -31 58 -5 2 -23 -5 -39 -16z"/>
<path d="M4230 7463 c-60 -22 -152 -114 -168 -169 -30 -103 0 -210 80 -279 54
-45 95 -58 176 -53 83 5 150 36 213 98 41 41 79 113 66 126 -3 3 -28 11 -55
19 l-50 13 -12 -29 c-26 -62 -126 -120 -182 -106 -12 3 -32 12 -42 20 -18 13
-13 18 65 68 46 30 116 75 156 99 40 25 72 50 73 57 1 26 -68 99 -119 125 -62
32 -129 36 -201 11z m141 -123 c20 -17 22 -21 9 -29 -8 -5 -53 -34 -100 -64
-46 -31 -88 -53 -92 -51 -12 8 -9 76 6 102 32 59 130 82 177 42z"/>
<path d="M5033 7451 c-76 -47 -37 -161 55 -161 47 0 82 37 82 87 -1 42 -13 63
-47 81 -31 17 -53 15 -90 -7z"/>
<path d="M7515 7307 c-67 -23 -99 -43 -149 -96 -69 -75 -91 -128 -91 -226 0
-71 4 -88 32 -146 59 -120 179 -205 304 -216 l59 -6 0 34 c0 19 -3 50 -6 69
-6 33 -8 35 -49 37 -152 6 -247 177 -171 307 50 85 140 127 229 105 87 -21
167 -117 167 -201 0 -15 10 -18 66 -18 l67 0 -6 52 c-14 112 -108 232 -224
285 -67 31 -168 40 -228 20z"/>
<path d="M3810 7121 c-93 -29 -180 -124 -180 -197 0 -27 0 -27 -20 -9 -21 19
-22 18 -71 -31 l-50 -50 246 -239 246 -238 52 51 52 52 -85 79 -85 79 40 11
c91 25 155 93 176 186 39 176 -151 357 -321 306z m94 -145 c37 -16 81 -67 91
-108 17 -68 -45 -148 -116 -148 -96 0 -178 98 -148 177 29 78 99 110 173 79z"/>
<path d="M8057 6918 c-26 -17 -47 -34 -47 -38 0 -5 25 -45 56 -90 31 -45 55
-83 53 -84 -2 -2 -94 -65 -204 -141 -110 -75 -206 -143 -213 -150 -11 -10 -6
-22 25 -68 21 -31 42 -56 46 -57 5 0 103 65 219 145 116 79 215 142 220 139 4
-3 31 -39 58 -80 28 -41 55 -74 61 -74 6 0 30 14 55 32 l44 31 -44 61 c-23 34
-94 135 -156 226 -62 91 -116 168 -119 172 -3 4 -28 -7 -54 -24z"/>
<path d="M3372 6604 c-122 -60 -189 -216 -150 -345 16 -54 71 -115 130 -145
174 -88 388 60 388 269 0 183 -202 304 -368 221z m157 -129 c49 -25 81 -72 81
-118 0 -74 -50 -126 -123 -127 -47 0 -86 20 -121 60 -46 56 -28 151 36 186 31
18 93 17 127 -1z"/>
<path d="M2869 6135 c-18 -43 -23 -65 -15 -69 125 -52 630 -255 632 -253 5 5
54 131 51 132 -7 6 -628 255 -634 255 -4 0 -20 -29 -34 -65z"/>
<path d="M8300 5978 c-162 -44 -297 -82 -299 -84 -8 -7 79 -318 103 -369 34
-72 88 -130 154 -162 48 -23 69 -28 132 -27 186 1 314 119 327 298 4 60 -1 93
-32 211 -54 207 -56 215 -74 214 -9 -1 -149 -37 -311 -81z m268 -177 c12 -43
22 -98 22 -122 0 -170 -220 -259 -341 -138 -28 28 -43 56 -60 111 -12 40 -22
86 -23 102 l-1 30 175 47 c96 26 182 48 191 48 12 1 22 -21 37 -78z"/>
<path d="M3085 5829 c-112 -27 -187 -135 -187 -268 0 -140 96 -239 240 -249
78 -5 135 15 187 65 74 72 112 211 85 307 -18 67 -30 73 -84 41 -41 -24 -44
-29 -36 -51 28 -72 -4 -180 -60 -209 -27 -14 -60 -20 -60 -11 0 2 18 84 40
182 42 183 42 193 0 194 -8 0 -31 2 -50 5 -19 2 -53 -1 -75 -6z m39 -186 c-7
-32 -19 -84 -25 -115 -13 -67 -26 -72 -64 -26 -24 28 -27 38 -23 87 4 45 10
59 37 83 19 17 43 28 60 28 l29 0 -14 -57z"/>
<path d="M2842 5238 l3 -72 158 -70 c86 -38 157 -72 157 -76 0 -4 -74 -36
-165 -71 l-165 -64 0 -73 c0 -65 2 -73 18 -68 9 3 123 48 252 100 l235 94 3
75 3 75 -233 102 c-128 57 -241 107 -251 112 -17 8 -18 4 -15 -64z"/>
<path d="M8351 5269 c-75 -15 -129 -58 -169 -134 -24 -44 -27 -62 -27 -145 0
-100 17 -151 62 -192 18 -17 21 -16 57 21 l37 38 -22 37 c-18 30 -21 48 -17
103 4 61 7 68 41 100 21 18 42 31 47 28 6 -4 10 -82 10 -191 l0 -184 50 0
c142 0 245 111 243 262 -1 173 -144 291 -312 257z m158 -165 c34 -29 53 -82
44 -126 -7 -35 -57 -88 -84 -88 -18 0 -19 8 -19 120 0 134 4 140 59 94z"/>
<path d="M3075 4721 c-132 -33 -204 -135 -193 -274 8 -97 61 -181 142 -225 48
-26 179 -23 231 5 117 62 164 201 119 352 -15 51 -87 145 -105 139 -4 -2 -21
-21 -37 -42 l-30 -40 31 -39 c27 -33 32 -48 35 -106 4 -65 3 -70 -27 -102 -23
-25 -33 -31 -39 -21 -5 7 -23 91 -41 187 -21 106 -38 175 -45 174 -6 -1 -24
-4 -41 -8z m19 -264 c23 -114 23 -117 4 -117 -59 0 -108 59 -108 131 0 34 6
47 35 76 20 20 38 34 40 31 3 -2 16 -57 29 -121z"/>
<path d="M8440 4645 c-113 -23 -230 -48 -261 -54 l-56 -12 -11 -63 c-7 -35
-12 -68 -12 -74 0 -6 100 -79 222 -162 247 -167 230 -163 244 -61 l6 48 -146
98 c-80 54 -146 101 -146 104 0 4 79 21 174 39 l175 34 11 56 c6 32 14 65 16
75 3 9 2 17 -3 16 -4 0 -100 -20 -213 -44z"/>
<path d="M8095 4166 c-121 -56 -203 -227 -169 -353 7 -27 20 -28 73 -7 39 15
39 16 39 69 -1 92 69 182 136 173 l25 -3 -73 -170 c-41 -93 -72 -173 -70 -177
9 -14 101 -38 148 -38 68 1 123 27 173 84 109 124 95 309 -31 393 -86 58 -169
68 -251 29z m229 -199 c24 -51 15 -100 -29 -144 -26 -26 -41 -33 -73 -33 l-40
0 46 110 c52 121 65 130 96 67z"/>
<path d="M3204 4150 c-106 -22 -217 -114 -248 -207 -20 -59 -20 -144 0 -212 8
-28 46 -117 84 -196 l69 -145 63 29 c151 69 513 242 519 249 4 4 -30 84 -76
177 -69 143 -90 178 -134 218 -83 77 -179 108 -277 87z m181 -178 c29 -21 52
-52 89 -121 26 -51 44 -96 40 -101 -12 -11 -356 -172 -359 -168 -15 15 -77
172 -82 205 -12 89 43 171 139 204 66 24 119 18 173 -19z"/>
<path d="M7785 3691 c-19 -32 -35 -61 -35 -64 0 -7 567 -367 577 -367 9 1 73
104 73 117 -1 4 -56 42 -123 84 -67 42 -197 124 -289 182 l-167 106 -36 -58z"/>
<path d="M7662 3463 c-61 -21 -145 -102 -172 -165 -46 -106 -23 -217 60 -291
56 -51 100 -69 171 -68 75 0 135 26 191 83 58 58 81 109 86 191 4 58 1 75 -23
123 -57 116 -191 170 -313 127z m141 -148 c66 -46 86 -119 47 -182 -50 -83
-144 -83 -219 2 -25 29 -31 44 -31 82 0 39 5 50 39 84 33 33 45 39 83 39 30 0
55 -8 81 -25z"/>
<path d="M3783 3347 c-72 -27 -147 -104 -171 -176 -46 -133 60 -311 184 -311
13 0 24 -3 24 -7 0 -4 -37 -45 -82 -90 l-83 -83 50 -50 51 -50 239 240 c132
132 241 244 243 248 1 4 -20 29 -46 55 -43 42 -50 46 -62 33 -18 -23 -30 -19
-30 9 0 62 -64 139 -145 176 -45 21 -124 23 -172 6z m190 -166 c28 -27 32 -38
32 -84 0 -86 -56 -142 -143 -142 -49 0 -56 3 -88 37 -27 30 -34 46 -34 79 0
125 149 195 233 110z"/>
<path d="M7178 3258 l-58 -41 34 -46 c18 -25 48 -66 65 -91 l33 -45 -44 -6
c-60 -8 -91 -23 -136 -64 -90 -80 -105 -204 -40 -311 54 -90 127 -134 220
-134 93 1 185 59 221 139 18 41 21 43 33 26 12 -16 17 -17 39 -5 13 7 39 25
56 40 l32 26 -194 276 c-107 153 -196 277 -199 277 -3 0 -31 -18 -62 -41z
m142 -347 c42 -22 80 -83 80 -129 0 -72 -54 -125 -126 -125 -53 0 -96 30 -124
87 -26 55 -20 103 19 142 47 48 95 56 151 25z"/>
<path d="M4271 2982 c-10 -8 -12 -21 -5 -58 9 -49 9 -49 54 -54 52 -7 83 -22
122 -58 32 -29 52 -83 43 -111 -5 -18 -22 -10 -168 79 l-162 99 -23 -37 c-71
-117 -44 -258 65 -335 60 -43 97 -55 171 -56 76 -1 138 25 183 77 126 143 72
343 -118 432 -52 24 -140 36 -162 22z m8 -279 c25 -15 70 -42 99 -61 51 -32
53 -35 37 -52 -63 -69 -195 -4 -195 96 0 24 3 44 7 44 3 0 27 -12 52 -27z"/>
<path d="M6673 2755 c-67 -20 -131 -63 -163 -107 -17 -23 -30 -45 -30 -49 0
-10 73 -49 90 -49 6 0 23 14 38 31 30 36 94 68 135 69 34 0 93 -26 100 -44 3
-7 -56 -37 -165 -81 -93 -38 -171 -72 -173 -75 -7 -11 36 -95 63 -123 154
-163 453 -40 452 187 -1 182 -167 298 -347 241z m217 -270 c0 -65 -58 -117
-132 -119 -35 -1 -87 26 -95 50 -3 10 179 92 210 93 12 1 17 -7 17 -24z"/>
<path d="M4688 2428 c-97 -156 -177 -287 -178 -293 -1 -5 28 -17 64 -26 l66
-17 83 132 c46 72 103 164 128 203 l44 72 6 -37 c4 -20 12 -128 19 -240 l13
-202 36 -9 c20 -6 52 -12 71 -15 l35 -6 125 199 c69 110 126 198 127 197 3 -3
33 -407 33 -447 0 -23 6 -27 71 -42 40 -10 74 -15 77 -12 10 9 -40 660 -52
671 -6 6 -42 19 -80 28 -53 13 -71 14 -77 5 -95 -154 -235 -366 -240 -364 -3
2 -12 98 -19 212 -7 114 -16 215 -21 224 -4 8 -32 21 -61 28 -29 6 -62 14 -73
17 -17 4 -46 -37 -197 -278z"/>
<path d="M6283 2627 c-29 -6 -43 -15 -43 -26 0 -9 12 -70 26 -136 14 -67 23
-134 19 -151 -7 -39 -50 -80 -95 -91 -19 -5 -35 -13 -35 -19 2 -32 18 -115 24
-118 13 -9 107 41 128 67 21 28 33 26 33 -5 0 -10 7 -18 15 -18 15 0 118 21
123 25 1 1 -20 109 -48 239 -27 131 -50 239 -50 242 0 7 -52 2 -97 -9z"/>
<path d="M5913 2558 c-45 -50 -36 -115 19 -144 88 -46 174 71 103 141 -32 33
-93 34 -122 3z"/>
</g>
</svg>
